<?xml version="1.0" encoding="utf-8"?>

<!DOCTYPE svg PUBLIC "-//W3C//DTD SVG 1.1//EN" "http://www.w3.org/Graphics/SVG/1.1/DTD/svg11.dtd">
<!-- Uploaded to: SVG Repo, www.svgrepo.com, Generator: SVG Repo Mixer Tools -->
<svg height="800px" width="800px" version="1.1" id="_x32_" xmlns="http://www.w3.org/2000/svg" xmlns:xlink="http://www.w3.org/1999/xlink" 
	 viewBox="0 0 512 512"  xml:space="preserve">
<style type="text/css">
	.st0{fill:#000000;}
</style>
<g>
	<path class="st0" d="M193.845,405.991c-6.248,0-11.324,5.062-11.324,11.318c0,6.255,5.077,11.325,11.324,11.325
		c6.256,0,11.325-5.07,11.325-11.325C205.17,411.053,200.101,405.991,193.845,405.991z"/>
	<path class="st0" d="M193.845,363.678c-6.248,0-11.324,5.069-11.324,11.325c0,6.248,5.077,11.318,11.324,11.318
		c6.256,0,11.325-5.07,11.325-11.318C205.17,368.746,200.101,363.678,193.845,363.678z"/>
	<path class="st0" d="M491.425,227.51H205.17h-2.075h-20.575h-79.706H82.241v20.567v211.537v20.575h20.574h79.706h20.575h2.075
		h286.254H512v-20.575V248.077V227.51H491.425z M491.425,459.614H205.17c0-6.255-5.069-11.318-11.325-11.318
		c-6.248,0-11.324,5.062-11.324,11.318h-79.706V248.077h79.706c0,6.255,5.077,11.318,11.324,11.318
		c6.256,0,11.325-5.062,11.325-11.318h286.254V459.614z"/>
	<path class="st0" d="M193.845,321.372c-6.248,0-11.324,5.069-11.324,11.324c0,6.248,5.077,11.318,11.324,11.318
		c6.256,0,11.325-5.07,11.325-11.318C205.17,326.441,200.101,321.372,193.845,321.372z"/>
	<path class="st0" d="M193.845,279.065c-6.248,0-11.324,5.062-11.324,11.318c0,6.256,5.077,11.325,11.324,11.325
		c6.256,0,11.325-5.069,11.325-11.325C205.17,284.127,200.101,279.065,193.845,279.065z"/>
	<polygon class="st0" points="117.846,196.225 369.458,59.702 449.357,206.934 472.755,206.934 387.535,49.881 377.73,31.811 
		359.638,41.61 108.048,178.148 106.224,179.133 88.14,188.939 18.084,226.961 0,236.774 9.813,254.859 61.673,350.425 
		61.673,307.289 27.898,245.046 61.673,226.709 	"/>
</g>
</svg>